Coordinates
version=1
nRows=8
nColumns=36
inDegrees=yes

Units are S.I. units (second, meters, Newtons, ...)
If the header above contains a line with 'inDegrees', this indicates whether rotational values are in degrees (yes) or radians (no).

endheader
time	pelvis_tilt	pelvis_list	pelvis_rotation	pelvis_tx	pelvis_ty	pelvis_tz	hip_flexion_r	hip_adduction_r	hip_rotation_r	knee_angle_r	knee_angle_r_beta	ankle_angle_r	subtalar_angle_r	mtp_angle_r	hip_flexion_l	hip_adduction_l	hip_rotation_l	knee_angle_l	knee_angle_l_beta	ankle_angle_l	subtalar_angle_l	mtp_angle_l	lumbar_extension	lumbar_bending	lumbar_rotation	arm_flex_r	arm_add_r	arm_rot_r	elbow_flex_r	pro_sup_r	arm_flex_l	arm_add_l	arm_rot_l	elbow_flex_l	pro_sup_l
      0.00000000	     -0.21475971	     -1.48116804	     -1.91685457	      0.41768410	      0.89599501	     -0.10253767	     -1.86787937	     -1.16919118	      2.19447059	      3.72651499	      0.06503996	      4.52130590	    -16.04358744	     -5.61892319	     -1.00587889	     -5.05654821	      1.39777575	      2.73834094	      0.04779307	      7.79173361	     -7.07060802	     -5.61892319	     -7.12050766	      0.93105972	     -0.99358214	     12.28757259	     -9.78468014	     42.88318368	     27.70497613	     65.98501931	      6.01947519	    -10.24104097	     36.35856205	     28.41317995	     59.81455322
      0.01666670	     -1.06211572	     -1.47183321	     -1.92432775	      0.41760369	      0.89475638	     -0.10247065	     -1.30790427	     -0.75818604	      3.36305505	      3.31017048	      0.05777337	      7.57605062	    -14.02065680	     -5.99083969	     -0.28317277	     -4.67972778	      2.25016683	      2.40313225	      0.04194257	      7.84443524	     -7.54849420	     -5.99083969	     -5.16988157	      0.82420929	     -0.85686779	     12.54209091	    -10.45736620	     47.84080236	     27.82905551	     67.91445812	      6.43918347	    -10.84676982	     40.89839939	     28.14711596	     61.15203537
      0.03333330	     -1.63006007	     -1.19926057	     -2.21687877	      0.41836716	      0.89238754	     -0.10113139	     -0.84224397	     -0.87419191	      3.29431512	      2.87899674	      0.05024797	      7.80770140	    -15.06415298	     -6.35758705	      0.18947742	     -4.39749784	      2.11144516	      2.19076864	      0.03823613	      7.67113671	     -8.24290509	     -6.35758705	     -4.72988861	      0.19636415	     -0.26612735	     12.72343296	    -10.73070876	     50.85525568	     28.40496148	     69.26550189	      7.30402508	    -11.86257400	     44.27872167	     28.80548747	     62.29455683
      0.05000000	     -1.02557396	     -1.10220408	     -2.25572216	      0.41784623	      0.89361082	     -0.10140148	     -1.54480560	     -1.03155779	      3.27724290	      2.65708695	      0.04637492	      8.27624441	    -15.03157466	     -6.59195608	     -0.77592440	     -4.24007643	      2.21383001	      1.61402577	      0.02817006	      7.69026960	     -8.62656194	     -6.59195608	     -5.70310196	     -0.14028486	      0.04627218	     13.02246443	    -11.04218951	     52.74621773	     28.93709073	     69.79652081	      8.14496323	    -12.48096683	     46.65370771	     29.11000665	     63.02281972
      0.06666670	     -0.98848935	     -1.08307814	     -2.34131733	      0.41783954	      0.89290080	     -0.10049528	     -1.59613108	     -1.01937160	      3.35663330	      2.57148405	      0.04488086	      8.30973567	    -15.42037749	     -6.85716434	     -0.99014444	     -4.23429496	      2.48438852	      1.29820598	      0.02265797	      7.67382032	     -9.24704663	     -6.85716434	     -5.83711906	     -0.15993558	      0.37007607	     13.22688926	    -11.24226274	     54.38196121	     29.13329988	     70.15816460	      8.68193509	    -12.65535081	     49.06310569	     28.85842751	     63.69454088
      0.08333330	     -0.77379046	     -0.99880558	     -2.41549914	      0.41810322	      0.89552619	     -0.10147211	     -1.84424925	     -1.12862603	      3.42077950	      2.48669086	      0.04340094	      8.19069768	    -15.57741999	     -7.21128305	     -1.27325404	     -4.11461721	      2.53253553	      1.18939825	      0.02075892	      7.71757170	     -9.54193596	     -7.21128305	     -6.01399859	     -0.18968578	      0.60427602	     13.43394614	    -11.31368215	     55.68343552	     28.90464651	     70.11928736	      9.10387919	    -12.55465292	     51.09899633	     28.27678890	     63.92503286
      0.10000000	     -0.46381852	     -0.92979133	     -2.45849780	      0.41696338	      0.89608475	     -0.10088808	     -2.19848437	     -1.22431990	      3.50930291	      2.32445417	      0.04056938	      8.10139466	    -15.76551063	     -7.34341552	     -1.61803908	     -4.03842360	      2.52795717	      1.12927764	      0.01970961	      7.61812444	     -9.62247887	     -7.34341552	     -6.40482046	     -0.28372433	      0.75468396	     13.66742057	    -11.53030915	     56.61401188	     29.24188173	     70.13712979	      9.45500971	    -12.65748979	     52.33345188	     28.31807795	     64.02348823
      0.11666670	     -0.10570105	     -0.86375217	     -2.54161022	      0.41652598	      0.89703524	     -0.10081292	     -2.61845424	     -1.31717545	      3.56042845	      2.14330056	      0.03740765	      7.94392202	    -15.82154174	     -7.42465641	     -2.00578056	     -3.93692353	      2.39422467	      1.09420182	      0.01909742	      7.45902062	     -9.66423777	     -7.42465641	     -6.93747168	     -0.40486223	      0.81190998	     13.88453556	    -11.70864102	     57.31172997	     29.67327175	     68.21022401	      9.62939631	    -12.70985555	     52.73675630	     28.46827058	     63.28923411
